# xmcd CD database file
#
# Track frame offsets:
#	150
#	14990
#	33975
#	48472
#	69300
#	84957
#	103717
#	116037
#	141317
#	155522
#	175200
#	198272
#
# Disc length: 3050 seconds
#
# Revision: 0
# Processed by: cddbd v1.5.1PL0 Copyright (c) Steve Scherf et al.
# Submitted via: CDex 1.51
#
DISCID=a40be80c
DTITLE=Lonnie Dale's Big Country - Vacaphobia
DYEAR=1900
DGENRE=Country
TTITLE0=Yes Blue That's Me
TTITLE1=It's Just Love
TTITLE2=Easier Said Than Done
TTITLE3=Let Me
TTITLE4=Vacaphobic Cowboy
TTITLE5=Fancy Meeting You
TTITLE6=I Know A Love
TTITLE7=A Tiny Tear
TTITLE8=Party Time
TTITLE9=Those Days Ara Gone
TTITLE10=Open Up Your Eyes
TTITLE11=i'll Be The One
EXTD=
EXTT0=
EXTT1=
EXTT2=
EXTT3=
EXTT4=
EXTT5=
EXTT6=
EXTT7=
EXTT8=
EXTT9=
EXTT10=
EXTT11=
PLAYORDER=
